# xmcd
#
# Track frame offsets:
#	150
#	16990
#	33405
#	42887
#	64868
#	80479
#	97950
#	114492
#	133826
#	152661
#	171877
#	189360
#	205402
#
# Disc length: 3040 seconds
#
# Revision: 0
# Processed by: cddbd v1.5.2PL0 Copyright (c) Steve Scherf et al.
# Submitted via: EasyCDDAExtractor 16.0.1.1
#
DISCID=a80bde0d
DTITLE=Dr Will - Dirt
DYEAR=2012
DGENRE=Blues
TTITLE0=Dr. Will - Dirt
TTITLE1=Dr Will - Another Fishing Song
TTITLE2=Dr Will - Every Sunday
TTITLE3=Dr. Will - Voodoofied
TTITLE4=Dr Will - She's Gone
TTITLE5=Dr Will - Bounce To The Boogie
TTITLE6=Dr Will - I Wish I Had A Song
TTITLE7=Dr Will - Good Times Revisted
TTITLE8=Dr Will - Hair Down
TTITLE9=Dr Will - The Moon Is Full Again
TTITLE10=Dr Will - Note On My Pillow
TTITLE11=Dr Will - Another Birthday Song
TTITLE12=Dr Will - Scary Part
EXTD=
EXTT0=
EXTT1=
EXTT2=
EXTT3=
EXTT4=
EXTT5=
EXTT6=
EXTT7=
EXTT8=
EXTT9=
EXTT10=
EXTT11=
EXTT12=
PLAYORDER=
